# xmcd
# Copyright (C) 1995-1998 Ti Kan
#
# Track frame offsets:
#       150
#       18255
#       39305
#       57777
#       73850
#       94377
#       117957
#       140187
#       162040
#       179772
#       200847
#       221552
#
# Disc length: 3413 seconds
#
# Revision: 0
# Processed by: cddbd v1.5.2PL0 Copyright (c) Steve Scherf et al.
# Submitted via: CD-Import v1.0
#
DISCID=b70d530c
DTITLE=Mick Jagger - Goddess In The Doorway
DYEAR=2001
DGENRE=
TTITLE0=Visions Of Paradise
TTITLE1=Joy
TTITLE2=Dancing In The Starlight
TTITLE3=God Gave Me Everything
TTITLE4=Hide Away
TTITLE5=Don't Call Me Up
TTITLE6=Goodess In The Doorway
TTITLE7=Lucky Day
TTITLE8=Everybody Getting High
TTITLE9=Gun
TTITLE10=Too Far Gone
TTITLE11=Brand New Set Of Rules
EXTD=
EXTT0=
EXTT1=
EXTT2=
EXTT3=
EXTT4=
EXTT5=
EXTT6=
EXTT7=
EXTT8=
EXTT9=
EXTT10=
EXTT11=
PLAYORDER=
